<?xml version="1.0" encoding="UTF-8" standalone="no"?>
<!-- Created with Inkscape (http://www.inkscape.org/) -->

<svg
   width="837.55017mm"
   height="340.14938mm"
   viewBox="0 0 837.55017 340.14938"
   version="1.1"
   id="svg5"
   xmlns="http://www.w3.org/2000/svg"
   xmlns:svg="http://www.w3.org/2000/svg">
  <defs
     id="defs2">
    <linearGradient
       id="linearGradient1682">
      <stop
         style="stop-color:#ffffff;stop-opacity:1;"
         offset="0"
         id="stop1680" />
    </linearGradient>
    <filter
       style="color-interpolation-filters:sRGB"
       id="filter6358"
       x="-0.033364326"
       y="-0.091850132"
       width="1.0721982"
       height="1.1987576">
      <feFlood
         flood-opacity="0.29106858054226475"
         flood-color="rgb(0,0,0)"
         result="flood"
         id="feFlood6348" />
      <feComposite
         in="flood"
         in2="SourceGraphic"
         operator="in"
         result="composite1"
         id="feComposite6350" />
      <feGaussianBlur
         in="composite1"
         stdDeviation="0.29999999999999999"
         result="blur"
         id="feGaussianBlur6352" />
      <feOffset
         dx="0.20000000000000001"
         dy="0.20000000000000001"
         result="offset"
         id="feOffset6354" />
      <feComposite
         in="SourceGraphic"
         in2="offset"
         operator="over"
         result="composite2"
         id="feComposite6356" />
    </filter>
  </defs>
  <g
     id="layer1"
     transform="translate(5.1270791,5.1271237)">
    <g
       id="g4619"
       transform="matrix(21.362805,0,0,21.362805,-203.3739,-2647.8743)"
       style="fill:#ffffff;fill-opacity:1;filter:url(#filter6358)">
      <text
         xml:space="preserve"
         style="font-size:8.73948px;fill:#ffffff;fill-opacity:1;stroke:#ffffff;stroke-width:1;stroke-linecap:round;stroke-linejoin:round;stroke-dasharray:none;stroke-dashoffset:0;stroke-opacity:1;paint-order:stroke fill markers"
         x="9.8794966"
         y="130.92316"
         id="text236"><tspan
           id="tspan234"
           style="font-style:normal;font-variant:normal;font-weight:bold;font-stretch:normal;font-size:8.73948px;font-family:Dubai;-inkscape-font-specification:'Dubai, Bold';font-variant-ligatures:normal;font-variant-caps:normal;font-variant-numeric:normal;font-variant-east-asian:normal;fill:#ffffff;fill-opacity:1;stroke:#ffffff;stroke-width:1;stroke-linecap:round;stroke-linejoin:round;stroke-dasharray:none;stroke-dashoffset:0;stroke-opacity:1;paint-order:stroke fill markers"
           x="9.8794966"
           y="130.92316">Isami</tspan></text>
      <text
         xml:space="preserve"
         style="font-style:normal;font-variant:normal;font-weight:bold;font-stretch:normal;font-size:8.73948px;font-family:Dubai;-inkscape-font-specification:'Dubai, Bold';font-variant-ligatures:normal;font-variant-caps:normal;font-variant-numeric:normal;font-variant-east-asian:normal;fill:#ffffff;fill-opacity:1;stroke:#ffffff;stroke-width:1;stroke-linecap:round;stroke-linejoin:round;stroke-dasharray:none;stroke-dashoffset:0;stroke-opacity:1;paint-order:stroke fill markers"
         x="9.8794966"
         y="138.08803"
         id="text844"><tspan
           id="tspan842"
           style="fill:#ffffff;fill-opacity:1;stroke:#ffffff;stroke-width:1;stroke-linecap:round;stroke-linejoin:round;stroke-dasharray:none;stroke-dashoffset:0;stroke-opacity:1;paint-order:stroke fill markers"
           x="9.8794966"
           y="138.08803">Industries</tspan></text>
    </g>
    <path
       d="M 20.935569,149.01144 V 28.029783 H 47.446968 V 149.01144 Z"
       style="font-weight:bold;font-size:44.8134px;font-family:Dubai;-inkscape-font-specification:'Dubai, Bold';fill:#ff9c56;stroke:#ffffff;stroke-width:0;stroke-linecap:round;stroke-linejoin:round;paint-order:stroke fill markers"
       id="path6760" />
    <path
       d="m 101.96333,151.6252 q -11.948791,0 -21.470493,-2.80049 -9.334999,-2.98718 -17.549796,-8.7749 l 10.641896,-16.24288 q 6.9079,5.0409 14.002499,7.28129 7.094603,2.05371 13.629094,2.05371 6.1611,0 8.9616,-1.86702 2.9872,-1.86698 2.9872,-5.04089 0,-2.05371 -1.1202,-3.54733 -1.1202,-1.68029 -4.6675,-3.17386 -3.3606,-1.68034 -10.081794,-3.54733 l -5.414297,-1.49361 q -13.4424,-3.73401 -19.4168,-9.70837 -5.787698,-5.9744 -5.787698,-16.242907 0,-7.84143 4.294098,-13.8158 4.294099,-5.97444 12.1355,-9.14831 7.8414,-3.36064 17.923191,-3.36064 19.0434,0 34.5395,9.14832 l -9.7084,16.24291 q -7.6547,-3.92069 -12.8823,-5.4143 -5.2276,-1.49361 -11.202,-1.49361 -4.667492,0 -7.094591,1.68029 -2.240401,1.68034 -2.240401,4.29411 0,1.86703 0.9335,3.17391 0.9335,1.1202 3.360599,2.2404 2.613801,0.93351 8.028093,2.42712 l 6.1611,1.6803 q 14.3759,3.734007 20.9104,10.455187 6.7212,6.72119 6.7212,16.98971 0,8.02811 -4.1074,14.37589 -3.9207,6.34782 -12.3222,10.08182 -8.2148,3.54728 -20.1636,3.54728 z"
       style="font-weight:bold;font-size:44.8134px;font-family:Dubai;-inkscape-font-specification:'Dubai, Bold';fill:#ffcc8a;fill-opacity:1;stroke:#ffffff;stroke-width:0;stroke-linecap:round;stroke-linejoin:round;paint-order:stroke fill markers"
       id="path6762" />
    <path
       d="m 191.57936,62.195863 q 16.4296,0 24.6444,6.53451 8.4015,6.34781 8.4015,21.09712 v 59.183947 h -21.6572 l -2.0537,-6.53451 q -6.9079,5.04089 -13.8158,7.09461 -6.7212,2.05366 -14.18919,2.05366 -7.84141,0 -13.81581,-2.98718 -5.97439,-2.98718 -9.335,-8.2148 -3.17389,-5.4143 -3.17389,-12.32222 0,-14.74931 14.5626,-22.40401 14.56259,-7.841387 38.08679,-8.774897 v -2.05371 q 0,-5.22758 -1.1202,-8.2148 -0.9335,-2.98718 -3.5473,-4.29411 -2.6138,-1.49357 -7.28129,-1.49357 -11.7621,0 -26.6981,9.52169 l -9.7084,-15.30941 q 10.08179,-6.5345 19.6035,-9.70841 9.7084,-3.17391 21.09709,-3.17391 z m -18.66999,62.731267 q 0,4.10738 2.42709,6.34778 2.4271,2.05371 7.0946,2.05371 7.6547,0 16.803,-5.04089 v -16.24292 q -13.6291,0.74679 -19.97689,4.29411 -6.3478,3.54728 -6.3478,8.58821 z"
       style="font-weight:bold;font-size:44.8134px;font-family:Dubai;-inkscape-font-specification:'Dubai, Bold';fill:#ff9c56;stroke:#ffffff;stroke-width:0;stroke-linecap:round;stroke-linejoin:round;paint-order:stroke fill markers"
       id="path6764" />
    <path
       d="m 348.96761,62.195863 q 11.7621,0 17.9232,6.53451 6.3478,6.34781 6.3478,18.48331 v 61.797757 h -25.3912 V 94.868383 q 0,-7.46797 -2.2404,-10.4552 -2.0537,-3.17391 -7.0946,-3.17391 -6.7212,0 -16.0562,5.41431 v 0.5601 61.797757 H 297.06502 V 94.868383 q 0,-7.46797 -2.2404,-10.4552 -2.05371,-3.17391 -7.0946,-3.17391 -7.2813,0 -16.2429,5.41431 v 62.357857 h -25.3912 V 65.556503 l 25.3912,-2.42712 v 7.28128 q 12.88229,-8.2148 26.69809,-8.2148 14.1892,0 20.3503,9.335 7.468,-4.48079 14.936,-6.90787 7.468,-2.42713 15.4961,-2.42713 z"
       style="font-weight:bold;font-size:44.8134px;font-family:Dubai;-inkscape-font-specification:'Dubai, Bold';fill:#ffcc8a;fill-opacity:1;stroke:#ffffff;stroke-width:0;stroke-linecap:round;stroke-linejoin:round;paint-order:stroke fill markers"
       id="path6766" />
    <path
       style="font-weight:bold;font-size:44.8134px;font-family:Dubai;-inkscape-font-specification:'Dubai, Bold';fill:#ff9c56;stroke:#ffffff;stroke-width:0;stroke-linecap:round;stroke-linejoin:round;paint-order:stroke fill markers"
       d="M 394.70903,149.01144 V 65.556503 l 25.3912,-2.42712 v 85.882057 z"
       id="path6792" />
    <path
       style="font-weight:bold;font-size:44.8134px;font-family:Dubai;-inkscape-font-specification:'Dubai, Bold';fill:#ff929e;fill-opacity:1;stroke:#ffffff;stroke-width:0;stroke-linecap:round;stroke-linejoin:round;paint-order:stroke fill markers"
       d="m 407.03123,52.487493 q -4.2941,0 -8.0281,-2.05371 -3.734,-2.2404 -5.9744,-5.7877 -2.2404,-3.54729 -2.2404,-7.8414 0,-4.2941 2.2404,-7.8414 2.2404,-3.734 5.9744,-5.7877 3.734,-2.2404 8.0281,-2.2404 4.48078,0 8.21479,2.2404 3.92069,2.0537 6.16109,5.7877 2.24044,3.5473 2.24044,7.8414 0,4.29411 -2.24044,7.8414 -2.2404,3.5473 -6.16109,5.7877 -3.73401,2.05371 -8.21479,2.05371 z"
       id="path6768" />
    <path
       d="M 20.935569,302.07327 V 181.09161 h 26.511399 v 120.98166 z"
       id="path6739"
       style="font-weight:bold;font-size:44.8134px;font-family:Dubai;-inkscape-font-specification:'Dubai, Bold';fill:#ffcc8a;fill-opacity:1;stroke:#ffffff;stroke-width:0;stroke-linecap:round;stroke-linejoin:round;paint-order:stroke fill markers" />
    <path
       d="m 125.86093,215.25774 q 12.8823,0 19.4168,6.53446 6.5345,6.34782 6.5345,18.67004 v 61.61103 h -25.3912 v -54.14305 q 0,-5.22758 -1.1202,-8.02808 -0.9335,-2.98722 -3.3606,-4.2941 -2.4271,-1.30689 -6.9079,-1.30689 -7.468,0 -17.549791,5.97437 v 61.79775 H 72.091338 v -83.45493 l 25.391201,-2.42713 v 8.2148 q 6.907891,-4.29411 13.815791,-6.72119 7.0946,-2.42708 14.5626,-2.42708 z"
       id="path6741"
       style="font-weight:bold;font-size:44.8134px;font-family:Dubai;-inkscape-font-specification:'Dubai, Bold';fill:#ff9c56;fill-opacity:1;stroke:#ffffff;stroke-width:0;stroke-linecap:round;stroke-linejoin:round;paint-order:stroke fill markers" />
    <path
       d="m 252.0701,171.19651 v 130.87676 h -21.65721 l -1.867,-5.78772 q -12.32219,8.40153 -25.39119,8.40153 -17.3631,0 -26.3247,-10.82861 -8.7749,-11.0153 -8.7749,-31.92573 0,-16.4296 6.3478,-26.8848 6.3478,-10.4552 16.2429,-15.12272 10.0818,-4.66748 21.2838,-4.66748 6.90789,0 14.74929,2.05367 v -43.68782 z m -57.877,90.54954 q 0,12.32222 3.9207,18.1099 3.9207,5.78772 11.7621,5.78772 4.29409,0 8.40149,-1.30693 4.10741,-1.30688 8.4015,-3.92069 v -45.92821 q -5.78769,-1.30693 -10.82859,-1.30693 -9.8951,0 -15.8695,7.46802 -5.7877,7.28129 -5.7877,21.09712 z"
       id="path6743"
       style="font-weight:bold;font-size:44.8134px;font-family:Dubai;-inkscape-font-specification:'Dubai, Bold';fill:#ffcc8a;fill-opacity:1;stroke:#ffffff;stroke-width:0;stroke-linecap:round;stroke-linejoin:round;paint-order:stroke fill markers" />
    <path
       d="m 352.88804,216.19121 v 85.88206 h -21.65719 l -2.0537,-6.72119 q -14.3759,9.335 -29.4986,9.335 -12.5089,0 -19.4168,-6.90791 -6.7212,-6.90792 -6.7212,-19.04342 v -60.11741 l 25.3912,-2.42713 v 55.07653 q 0,7.46801 2.4271,10.82861 2.4271,3.17391 8.7749,3.17391 6.7212,0 17.3631,-5.78772 v -60.8642 z"
       id="path6745"
       style="font-weight:bold;font-size:44.8134px;font-family:Dubai;-inkscape-font-specification:'Dubai, Bold';fill:#ff9c56;fill-opacity:1;stroke:#ffffff;stroke-width:0;stroke-linecap:round;stroke-linejoin:round;paint-order:stroke fill markers" />
    <path
       d="m 405.16421,304.68708 q -11.9488,0 -21.4705,-2.80049 -9.335,-2.98723 -17.5498,-8.77495 l 10.6419,-16.24287 q 6.9079,5.04089 14.0025,7.28129 7.0946,2.05371 13.6291,2.05371 6.16109,0 8.96159,-1.86703 2.98722,-1.86698 2.98722,-5.04089 0,-2.05371 -1.1202,-3.54728 -1.1202,-1.6803 -4.66752,-3.17391 -3.36059,-1.68034 -10.08179,-3.54732 l -5.4143,-1.49361 q -13.4424,-3.73397 -19.4168,-9.70837 -5.7877,-5.97441 -5.7877,-16.24292 0,-7.84139 4.2941,-13.81583 4.2941,-5.97441 12.1355,-9.14827 7.8414,-3.3606 17.9232,-3.3606 19.04338,0 34.53952,9.14827 l -9.70842,16.24292 q -7.6547,-3.9207 -12.88232,-5.41431 -5.22758,-1.49357 -11.20198,-1.49357 -4.6675,0 -7.0946,1.6803 -2.2404,1.6803 -2.2404,4.29407 0,1.86702 0.9335,3.17391 0.9335,1.12019 3.3606,2.24039 2.6138,0.93351 8.0281,2.42713 l 6.16111,1.68029 q 14.37589,3.73401 20.9104,10.4552 6.72119,6.72119 6.72119,16.9897 0,8.02812 -4.10738,14.37589 -3.92074,6.34782 -12.32223,10.08183 -8.2148,3.54732 -20.16359,3.54732 z"
       id="path6747"
       style="font-weight:bold;font-size:44.8134px;font-family:Dubai;-inkscape-font-specification:'Dubai, Bold';fill:#ffcc8a;fill-opacity:1;stroke:#ffffff;stroke-width:0;stroke-linecap:round;stroke-linejoin:round;paint-order:stroke fill markers" />
    <path
       d="m 511.39655,298.52595 q -11.0153,6.16113 -24.6444,6.16113 -6.90792,0 -12.88232,-2.61381 -5.78768,-2.80049 -9.52169,-8.7749 -3.73401,-5.9744 -3.73401,-15.12272 v -40.14053 h -15.3094 v -19.97688 h 15.3094 v -18.85673 l 25.39119,-3.54728 v 22.40401 h 23.33752 l -2.61381,19.97688 h -20.72371 v 36.21984 q 0,5.60099 1.86703,7.84139 2.05371,2.24039 5.60099,2.24039 2.61381,0 5.04089,-0.56009 2.42712,-0.74679 5.9744,-2.2404 z"
       id="path6749"
       style="font-weight:bold;font-size:44.8134px;font-family:Dubai;-inkscape-font-specification:'Dubai, Bold';fill:#ff9c56;fill-opacity:1;stroke:#ffffff;stroke-width:0;stroke-linecap:round;stroke-linejoin:round;paint-order:stroke fill markers" />
    <path
       d="m 572.63429,215.25774 q 5.41431,0 10.08179,1.6803 l -3.73401,25.57787 q -2.98718,-1.1202 -5.41431,-1.6803 -2.42708,-0.56009 -5.60099,-0.56009 -4.8542,0 -9.52168,2.42712 -4.4808,2.2404 -8.96159,8.2148 v 51.15583 h -25.39123 v -83.45493 l 25.39123,-2.42713 v 11.76212 q 9.335,-12.69559 23.15079,-12.69559 z"
       id="path6751"
       style="font-weight:bold;font-size:44.8134px;font-family:Dubai;-inkscape-font-specification:'Dubai, Bold';fill:#ffcc8a;fill-opacity:1;stroke:#ffffff;stroke-width:0;stroke-linecap:round;stroke-linejoin:round;paint-order:stroke fill markers" />
    <path
       style="font-weight:bold;font-size:44.8134px;font-family:Dubai;-inkscape-font-specification:'Dubai, Bold';fill:#ff9c56;fill-opacity:1;stroke:#ffffff;stroke-width:0;stroke-linecap:round;stroke-linejoin:round;paint-order:stroke fill markers"
       d="m 595.97185,302.07327 v -83.45493 l 25.39119,-2.42713 v 85.88206 z"
       id="path6788" />
    <path
       style="font-weight:bold;font-size:44.8134px;font-family:Dubai;-inkscape-font-specification:'Dubai, Bold';fill:#bcda5d;fill-opacity:1;stroke:#ffffff;stroke-width:0;stroke-linecap:round;stroke-linejoin:round;paint-order:stroke fill markers"
       d="m 608.29403,205.54933 q -4.2941,0 -8.02807,-2.05371 -3.73401,-2.2404 -5.9744,-5.78772 -2.2404,-3.54728 -2.2404,-7.84139 0,-4.29411 2.2404,-7.84143 2.24039,-3.73397 5.9744,-5.78768 3.73397,-2.24039 8.02807,-2.24039 4.4808,0 8.21481,2.24039 3.92069,2.05371 6.16109,5.78768 2.24039,3.54732 2.24039,7.84143 0,4.29411 -2.24039,7.84139 -2.2404,3.54732 -6.16109,5.78772 -3.73401,2.05371 -8.21481,2.05371 z"
       id="path6753" />
    <path
       d="m 718.44709,252.41105 q 0,3.73401 -0.74679,13.06901 h -53.7696 q 1.1202,10.4552 6.90788,15.49609 5.78772,4.85421 13.81583,4.85421 5.97436,0 11.5754,-1.6803 5.60099,-1.6803 11.94876,-5.41431 l 8.58822,15.30941 q -6.72119,5.04089 -15.49609,7.84143 -8.7749,2.80049 -19.04341,2.80049 -12.32218,0 -22.21728,-4.48083 -9.70842,-4.4808 -15.68282,-14.18921 -5.78768,-9.8951 -5.78768,-25.39119 0,-14.1892 4.85417,-24.45771 5.04093,-10.26852 14.37593,-15.49614 9.52169,-5.41426 22.40397,-5.41426 12.32222,0 20.91043,4.85416 8.77486,4.85421 13.06897,13.25574 4.29411,8.40149 4.29411,19.04341 z m -37.71341,-19.97692 q -6.53447,0 -10.64189,4.10742 -3.92069,3.92069 -5.4143,12.50887 h 29.68529 v -0.5601 q 0,-8.58818 -3.73401,-12.32218 -3.73396,-3.73401 -9.89509,-3.73401 z"
       id="path6755"
       style="font-weight:bold;font-size:44.8134px;font-family:Dubai;-inkscape-font-specification:'Dubai, Bold';fill:#ffcc8a;fill-opacity:1;stroke:#ffffff;stroke-width:0;stroke-linecap:round;stroke-linejoin:round;paint-order:stroke fill markers" />
    <path
       d="m 765.49558,304.68708 q -11.94877,0 -21.47049,-2.80049 -9.335,-2.98723 -17.54981,-8.77495 l 10.64193,-16.24287 q 6.90788,5.04089 14.00248,7.28129 7.0946,2.05371 13.6291,2.05371 6.1611,0 8.96159,-1.86703 2.98722,-1.86698 2.98722,-5.04089 0,-2.05371 -1.12019,-3.54728 -1.1202,-1.6803 -4.66752,-3.17391 -3.3606,-1.68034 -10.08179,-3.54732 l -5.4143,-1.49361 q -13.44243,-3.73397 -19.41679,-9.70837 -5.78772,-5.97441 -5.78772,-16.24292 0,-7.84139 4.29411,-13.81583 4.29411,-5.97441 12.1355,-9.14827 7.84138,-3.3606 17.92321,-3.3606 19.04337,0 34.5395,9.14827 l -9.70841,16.24292 q -7.6547,-3.9207 -12.88232,-5.41431 -5.22758,-1.49357 -11.20199,-1.49357 -4.66752,0 -7.0946,1.6803 -2.2404,1.6803 -2.2404,4.29407 0,1.86702 0.93352,3.17391 0.93347,1.12019 3.36059,2.24039 2.61381,0.93351 8.02808,2.42713 l 6.16113,1.68029 q 14.37589,3.73401 20.91039,10.4552 6.72119,6.72119 6.72119,16.9897 0,8.02812 -4.10742,14.37589 -3.92069,6.34782 -12.32218,10.08183 -8.2148,3.54732 -20.16361,3.54732 z"
       id="path6757"
       style="font-weight:bold;font-size:44.8134px;font-family:Dubai;-inkscape-font-specification:'Dubai, Bold';fill:#ff9c56;fill-opacity:1;stroke:#ffffff;stroke-width:0;stroke-linecap:round;stroke-linejoin:round;paint-order:stroke fill markers" />
  </g>
</svg>
